# xmcd
#
# Track frame offsets: 
#        150
#        6982
#        28360
#        54247
#        76415
#        98517
#        119885
#        140382
#        156352
#        180047
#        200675
#        226367
#        245445
#        267670
#
# Disc length: 3811 seconds
#
# Revision: 15
# Processed by: cddbd v1.5.2PL0 Copyright (c) Steve Scherf et al.
# Submitted via: ExactAudioCopy v1.3
#
DISCID=be0ee10e
DTITLE=夏韶聲 - 諳 II
DYEAR=2000
DGENRE=Pop
TTITLE0=[諳] II 序 
TTITLE1=空凳
TTITLE2=結他低泣時
TTITLE3=車站
TTITLE4=永不放棄
TTITLE5=啤酒罐
TTITLE6=擔優
TTITLE7=My Friend
TTITLE8=這是愛
TTITLE9=搖擺心窩
TTITLE10=交叉點
TTITLE11=媽媽我沒有做錯
TTITLE12=車站
TTITLE13=童年時
EXTD=YEAR: 2000
EXTT0=
EXTT1=
EXTT2=
EXTT3=
EXTT4=
EXTT5=
EXTT6=
EXTT7=
EXTT8=
EXTT9=
EXTT10=
EXTT11=
EXTT12=
EXTT13=
PLAYORDER=
